# OBJ written from /Users/reecerobinson/Documents/Blender/Decals/Unity3d/Decals/Assets/Models/CollisionCubeInvertedNormals.obj
# Units	meters

o Mesh
v -0.5 -0.5 -0.5
v 0.5 -0.5 -0.5
v 0.5 -0.5 0.5
v -0.5 -0.5 0.5
v -0.5 0.5 -0.5
v 0.5 0.5 -0.5
v 0.5 0.5 0.5
v -0.5 0.5 0.5
vn 0 1 0
vn 0 0 1
vn -1 0 0
vn 0 0 -1
vn 1 0 0
vn 0 -1 0
vt 0.25 0
vt 0.25 0.333333
vt 0.5 0.333333
vt 0.5 0
vt 1 0.666667
vt 1 0.333333
vt 0.75 0.333333
vt 0.75 0.666667
vt 0.5 0.666667
vt 0.25 0.666667
vt 0 0.333333
vt 0 0.666667
vt 0.25 1
vt 0.5 1
mtllib CollisionCubeInvertedNormals.mtl
usemtl Default
g Default
f 1/1/1 4/2/1 3/3/1 2/4/1
f 5/5/2 1/6/2 2/7/2 6/8/2
f 6/8/3 2/7/3 3/3/3 7/9/3
f 7/9/4 3/3/4 4/2/4 8/10/4
f 8/10/5 4/2/5 1/11/5 5/12/5
f 5/13/6 6/14/6 7/9/6 8/10/6
